name C:\Users\r0593348\3dpredictsim\Results\MidTarsalJoint\Fal_s1_bCst_PF_Natali2010_ls150_MT_k50_d010_MTP_T5_ig24.mot
datacolumns 128
datarows 4
range 0.58592964 0.62108542
endheader
time	pelvis_tilt	pelvis_list	pelvis_rotation	pelvis_tx	pelvis_ty	pelvis_tz	hip_flexion_l	hip_adduction_l	hip_rotation_l	hip_flexion_r	hip_adduction_r	hip_rotation_r	knee_angle_l	knee_angle_r	ankle_angle_l	ankle_angle_r	subtalar_angle_l	subtalar_angle_r	mtj_angle_l	mtj_angle_r	mtp_angle_l	mtp_angle_r	lumbar_extension	lumbar_bending	lumbar_rotation	arm_flex_l	arm_add_l	arm_rot_l	arm_flex_r	arm_add_r	arm_rot_r	elbow_flex_l	elbow_flex_r	pro_sup_l	pro_sup_r	glut_med1_l/activation	glut_med2_l/activation	glut_med3_l/activation	glut_min1_l/activation	glut_min2_l/activation	glut_min3_l/activation	semimem_l/activation	semiten_l/activation	bifemlh_l/activation	bifemsh_l/activation	sar_l/activation	add_long_l/activation	add_brev_l/activation	add_mag1_l/activation	add_mag2_l/activation	add_mag3_l/activation	tfl_l/activation	pect_l/activation	grac_l/activation	glut_max1_l/activation	glut_max2_l/activation	glut_max3_l/activation	iliacus_l/activation	psoas_l/activation	quad_fem_l/activation	gem_l/activation	peri_l/activation	rect_fem_l/activation	vas_med_l/activation	vas_int_l/activation	vas_lat_l/activation	med_gas_l/activation	lat_gas_l/activation	soleus_l/activation	tib_post_l/activation	flex_dig_l/activation	flex_hal_l/activation	tib_ant_l/activation	per_brev_l/activation	per_long_l/activation	per_tert_l/activation	ext_dig_l/activation	ext_hal_l/activation	ercspn_l/activation	intobl_l/activation	extobl_l/activation	glut_med1_r/activation	glut_med2_r/activation	glut_med3_r/activation	glut_min1_r/activation	glut_min2_r/activation	glut_min3_r/activation	semimem_r/activation	semiten_r/activation	bifemlh_r/activation	bifemsh_r/activation	sar_r/activation	add_long_r/activation	add_brev_r/activation	add_mag1_r/activation	add_mag2_r/activation	add_mag3_r/activation	tfl_r/activation	pect_r/activation	grac_r/activation	glut_max1_r/activation	glut_max2_r/activation	glut_max3_r/activation	iliacus_r/activation	psoas_r/activation	quad_fem_r/activation	gem_r/activation	peri_r/activation	rect_fem_r/activation	vas_med_r/activation	vas_int_r/activation	vas_lat_r/activation	med_gas_r/activation	lat_gas_r/activation	soleus_r/activation	tib_post_r/activation	flex_dig_r/activation	flex_hal_r/activation	tib_ant_r/activation	per_brev_r/activation	per_long_r/activation	per_tert_r/activation	ext_dig_r/activation	ext_hal_r/activation	ercspn_r/activation	intobl_r/activation	extobl_r/activation	
          0.58592964	         -2.92733783	          2.56101408	         -6.77848439	          0.73241205	          0.91486863	          0.00167306	         28.25963260	          3.96084966	         -1.16851528	        -15.90796817	         -2.38465354	          6.02325456	        -10.41593120	        -12.98257807	          4.35383872	         -6.45646123	         -7.18903609	         13.59585462	         -0.41024039	         11.69743600	         -0.76436312	         -0.03468718	         -1.34115494	         -0.72958032	          2.56689678	         -8.46760944	        -13.51691693	          4.70577743	          4.34272432	        -13.45702885	         16.05065002	         17.33499933	         39.78840609	         86.51662706	         86.51662706	          0.22429337	          0.20479742	          0.20954896	          0.26576899	          0.18351886	          0.16193572	          0.16942731	          0.07856534	          0.09637360	          0.07377523	          0.05000185	          0.10208028	          0.24024253	          0.25205664	          0.16527339	          0.12329336	          0.05000084	          0.05977264	          0.11327470	          0.05000204	          0.13149272	          0.12418160	          0.05003157	          0.05549160	          0.43418165	          0.16627095	          0.15871509	          0.05000115	          0.06167669	          0.06255969	          0.05323123	          0.05129637	          0.05663301	          0.05000025	          0.05000029	          0.05000075	          0.05000094	          0.49326981	          0.31959435	          0.17804522	          0.25784251	          0.46959488	          0.14235214	          0.05000031	          0.14194049	          0.07500379	          0.27757606	          0.07966090	          0.05707129	          0.24340251	          0.14005295	          0.08539481	          0.05000328	          0.05000047	          0.05000043	          0.05000047	          0.08448173	          0.07601093	          0.05000116	          0.05000275	          0.05000215	          0.05000174	          0.30773841	          0.05000742	          0.05000173	          0.05002370	          0.05001024	          0.05000308	          0.35649079	          0.61225434	          0.05000118	          0.05000421	          0.05000277	          0.24332129	          0.09481483	          0.10652146	          0.10806381	          0.21785290	          0.30128005	          0.33761319	          0.20765777	          0.14728373	          0.20666900	          0.05000007	          0.10824142	          0.18927176	          0.05000034	          0.05000009	          0.05000041	          0.05000011	          0.05976545	          0.05106091	
          0.59764824	         -2.92281274	          2.64924953	         -7.02322443	          0.75043665	          0.91387481	          0.00147190	         27.53727213	          4.21570348	         -0.88872725	        -15.79536974	         -2.70523628	          5.81231721	        -11.05993760	        -14.84926650	          3.65419109	         -6.95153981	         -7.49537230	         14.31184419	         -0.42977357	         10.07017150	         -0.67402202	          1.37330056	         -1.11554360	         -0.92848043	          2.61796157	         -9.36530990	        -13.51398630	          4.82128019	          3.98457283	        -13.46001401	         16.32759416	         16.85574329	         40.90850344	         86.51662706	         86.51662706	          0.31013590	          0.31234316	          0.32771753	          0.22234389	          0.17179907	          0.18649664	          0.14174348	          0.06573600	          0.08062667	          0.06172081	          0.05000133	          0.08540075	          0.20098774	          0.21087167	          0.13826899	          0.14669306	          0.05000094	          0.05000676	          0.09476644	          0.19735220	          0.18183447	          0.14543642	          0.05000012	          0.05000014	          0.36323784	          0.13910299	          0.13278231	          0.05000017	          0.07417634	          0.08704817	          0.06418072	          0.05000006	          0.05000014	          0.05000002	          0.05000027	          0.05000047	          0.05000050	          0.57105162	          0.32994186	          0.19230295	          0.47185577	          0.50407955	          0.25805164	          0.07145061	          0.11874791	          0.06274843	          0.24258258	          0.06664484	          0.05000214	          0.23697512	          0.11716919	          0.07144175	          0.05000429	          0.05000041	          0.05000036	          0.05000044	          0.07145457	          0.06359176	          0.05000126	          0.05000126	          0.05000279	          0.05000143	          0.26591119	          0.05002240	          0.05000270	          0.05001286	          0.05000541	          0.05000228	          0.30395508	          0.58434890	          0.05000127	          0.05000724	          0.05000276	          0.20356348	          0.08791244	          0.11959242	          0.14582081	          0.18225643	          0.25205190	          0.28244828	          0.17372739	          0.12321851	          0.17290032	          0.05000011	          0.11722250	          0.19710299	          0.05000077	          0.05000137	          0.05000060	          0.05937147	          0.05000004	          0.05000006	
          0.60936683	         -2.91703620	          2.72750118	         -7.22338871	          0.76843992	          0.91315882	          0.00124213	         26.86818468	          4.47791792	         -0.62050914	        -15.58132970	         -3.00775292	          5.61990083	        -11.78243413	        -16.80480819	          2.93590938	         -7.54128138	         -7.80371814	         14.94524621	         -0.43697724	          8.03663076	         -0.63100882	          3.19499327	         -0.90228856	         -1.13052688	          2.66100699	        -10.20980896	        -13.50636135	          4.97358035	          3.61220796	        -13.46448119	         16.59213362	         16.39484852	         41.91693927	         86.51662706	         86.51662706	          0.38467666	          0.36532528	          0.38428287	          0.20100222	          0.14373246	          0.21248856	          0.11858312	          0.07235867	          0.07329508	          0.05163617	          0.05000081	          0.07144673	          0.16814901	          0.17645408	          0.18754562	          0.17098538	          0.05000063	          0.05312914	          0.10032770	          0.23531774	          0.20951478	          0.17586343	          0.05000036	          0.05000030	          0.30388602	          0.11637419	          0.15624136	          0.05000017	          0.14833828	          0.15729880	          0.12762836	          0.05000009	          0.05000019	          0.05000002	          0.05000005	          0.05000058	          0.05000040	          0.62133590	          0.27603051	          0.16088132	          0.44133688	          0.51630989	          0.29645152	          0.08238483	          0.09934491	          0.05249557	          0.26477378	          0.05575553	          0.05000035	          0.20192750	          0.09802441	          0.05976854	          0.05000395	          0.05000045	          0.05000045	          0.05000040	          0.05978243	          0.08336683	          0.05000115	          0.05000170	          0.05000244	          0.05000125	          0.22246323	          0.05767148	          0.05000213	          0.05000682	          0.05000286	          0.05000142	          0.25428992	          0.53911809	          0.05000052	          0.05000176	          0.05000041	          0.17030188	          0.11457956	          0.11595098	          0.12199928	          0.15247632	          0.21086744	          0.23629713	          0.14534096	          0.10308526	          0.14464915	          0.06991310	          0.14466684	          0.18772293	          0.05000062	          0.11556837	          0.05000156	          0.08010855	          0.05000005	          0.05000008	
          0.62108542	         -2.90992988	          2.79766945	         -7.38310122	          0.78632784	          0.91279360	          0.00098821	         26.24382070	          4.74965245	         -0.35542971	        -15.24529422	         -3.28853699	          5.43781784	        -12.56775933	        -18.86318015	          2.21438968	         -8.24842994	         -8.09821450	         15.47741754	         -0.46806472	          5.67331550	         -0.61174229	          5.22307153	         -0.70297389	         -1.33438678	          2.69518864	        -10.98785571	        -13.49378504	          5.15049701	          3.24812095	        -13.46822563	         16.86590920	         15.95410073	         42.78974773	         86.51662706	         86.51662706	          0.46094640	          0.43223436	          0.43597487	          0.16821779	          0.19806382	          0.20327284	          0.09920712	          0.07661287	          0.06742003	          0.05000154	          0.05000083	          0.05977268	          0.14067420	          0.14762439	          0.19901859	          0.19634578	          0.05000055	          0.05000282	          0.08393794	          0.28861143	          0.24560074	          0.20818445	          0.05000015	          0.05000016	          0.25423213	          0.09735924	          0.13071264	          0.05000015	          0.24736000	          0.25350077	          0.21090403	          0.05000010	          0.05000030	          0.05000005	          0.12492226	          0.05004077	          0.05001757	          0.68390963	          0.23092808	          0.13459396	          0.36922398	          0.49496520	          0.26290308	          0.08895723	          0.08311228	          0.05000007	          0.22151279	          0.05000024	          0.05000011	          0.16893459	          0.08200777	          0.05000273	          0.05000452	          0.05000038	          0.05000038	          0.05000021	          0.05001488	          0.10985149	          0.12997088	          0.05000286	          0.05001377	          0.08801255	          0.18612148	          0.05005452	          0.05000075	          0.05000296	          0.05000193	          0.05000120	          0.21273982	          0.49294773	          0.05000017	          0.05000066	          0.05000019	          0.14247511	          0.10206837	          0.10206833	          0.10206838	          0.12756218	          0.17641240	          0.19768693	          0.12159278	          0.08624171	          0.12101412	          0.14455080	          0.13727394	          0.15704987	          0.07331070	          0.17892590	          0.05000335	          0.09959514	          0.05000003	          0.05000007	
